<?xml version="1.0" encoding="UTF-8"?>
<svg width="512" height="512" viewBox="0 0 512 512" xmlns="http://www.w3.org/2000/svg">
    <style>
        path {
            fill: #8B5CF6;
        }
        @media (prefers-color-scheme: dark) {
            path {
                fill: #A78BFA;
            }
        }
    </style>
    <path d="M256 64C150.13 64 64 150.13 64 256s86.13 192 192 192 192-86.13 192-192S361.87 64 256 64zm0 48c79.41 0 144 64.59 144 144s-64.59 144-144 144S112 335.41 112 256s64.59-144 144-144zm0 48c-52.94 0-96 43.06-96 96s43.06 96 96 96 96-43.06 96-96-43.06-96-96-96zm0 48c26.47 0 48 21.53 48 48s-21.53 48-48 48-48-21.53-48-48 21.53-48 48-48z"/>
</svg>
